<?xml version="1.0" encoding="UTF-8" standalone="no"?>
<svg
   xmlns:dc="http://purl.org/dc/elements/1.1/"
   xmlns:cc="http://creativecommons.org/ns#"
   xmlns:rdf="http://www.w3.org/1999/02/22-rdf-syntax-ns#"
   xmlns:svg="http://www.w3.org/2000/svg"
   xmlns="http://www.w3.org/2000/svg"
   xmlns:sodipodi="http://sodipodi.sourceforge.net/DTD/sodipodi-0.dtd"
   xmlns:inkscape="http://www.inkscape.org/namespaces/inkscape"
   version="1.1"
   id="svg121"
   width="1920"
   height="3560"
   viewBox="0 0 1920 3560"
   sodipodi:docname="banner-red-large-repeating.svg"
   inkscape:version="1.0.1 (3bc2e813f5, 2020-09-07)">
  <metadata
     id="metadata127">
    <rdf:RDF>
      <cc:Work
         rdf:about="">
        <dc:format>image/svg+xml</dc:format>
        <dc:type
           rdf:resource="http://purl.org/dc/dcmitype/StillImage" />
        <dc:title></dc:title>
      </cc:Work>
    </rdf:RDF>
  </metadata>
  <defs
     id="defs125" />
  <sodipodi:namedview
     pagecolor="#ffffff"
     bordercolor="#666666"
     borderopacity="1"
     objecttolerance="10"
     gridtolerance="10"
     guidetolerance="10"
     inkscape:pageopacity="0"
     inkscape:pageshadow="2"
     inkscape:window-width="1920"
     inkscape:window-height="1017"
     id="namedview123"
     showgrid="false"
     inkscape:zoom="0.084415838"
     inkscape:cx="1164.3575"
     inkscape:cy="2796.6775"
     inkscape:window-x="-8"
     inkscape:window-y="-8"
     inkscape:window-maximized="1"
     inkscape:current-layer="g129" />
  <g
     inkscape:groupmode="layer"
     inkscape:label="Image"
     id="g129">
    <g
       id="g133">
      <path
         style="fill:#f85852"
         d="M 0,1780 V 0 h 960 960 V 1780 3560 H 960 0 Z"
         id="path137" />
      <path
         style="fill:#ef4a44"
         d="M 0,2348.5 C 0,1682.175 0.20023595,1137 0.44496878,1137 c 0.24473282,0 60.01422522,34.3854 132.82109122,76.412 72.80687,42.0266 135.23356,77.6147 138.72598,79.0846 20.87713,8.7871 47.13461,9.8445 69.4843,2.7981 21.21963,-6.6901 40.78257,-21.4397 52.78105,-39.7947 2.5167,-3.85 44.26738,-75.7994 92.77926,-159.8875 60.57684,-105.00095 89.12013,-155.39934 91.13016,-160.90695 16.05879,-44.00213 0.73512,-92.8078 -37.18343,-118.42869 -7.53569,-5.09173 -307.9648,-178.32921 -315.49189,-181.92318 -3.85468,-1.8405 -11.50468,-4.53109 -17,-5.97908 C 194.943,624.80462 173.95405,624.5278 161,627.74824 137.34741,633.6284 115.578,648.04753 102.49418,666.5 100.1543,669.8 76.306513,710.525 49.499102,757 22.691691,803.475 0.58772489,841.6875 0.37917735,841.91667 0.17062981,842.14583 0,652.80833 0,421.16667 V 0 H 488.5 C 757.175,0 977,0.18569885 977,0.4126641 977,0.63962936 955.4765,38.102129 929.17,83.662664 902.8635,129.2232 850.02265,220.7398 811.7459,287.03289 c -38.27675,66.29309 -70.92556,123.89309 -72.55291,128 -5.08777,12.83992 -6.68211,21.86248 -6.62064,37.46711 0.062,15.74991 2.0162,25.84647 7.5973,39.25288 7.75487,18.62803 23.90102,36.62069 42.95769,47.87042 42.06604,24.83288 750.66026,433.30204 755.37266,435.43459 19.594,8.86712 45.9578,10.77868 67.4262,4.88891 9.3468,-2.56428 21.7896,-8.33155 30.1926,-13.99447 8.0814,-5.4461 20.3406,-17.66486 25.5365,-25.45233 2.2019,-3.3 61.1177,-104.96287 130.924,-225.91749 l 126.9207,-219.9175 0.2503,1516.33379 c 0.1377,833.9837 0.096,1516.488 -0.092,1516.6763 -0.1883,0.1883 -136.4259,-78.2292 -302.7503,-174.2612 -166.3244,-96.0319 -305.333,-176.0827 -308.908,-177.8905 -8.53,-4.3135 -20.6967,-8.0966 -30.3636,-9.4411 -34.7128,-4.8282 -70.6159,9.2068 -91.8473,35.9042 -4.358,5.4799 -37.3016,61.657 -107.2891,182.9545 l -101,175.0462 -488.75,0.01 L 0,3560 Z m 629,940.8199 c 21.58574,-4.3067 43.62595,-17.8651 57.1476,-35.1552 8.82296,-11.2819 168.81979,-288.8337 172.73035,-299.641 4.45557,-12.3136 6.12373,-21.9342 6.10891,-35.2315 -0.0251,-22.582 -6.57385,-42.906 -19.42704,-60.2922 -4.3694,-5.9104 -15.74163,-16.9645 -22.05982,-21.4427 -8.28016,-5.8687 -279.04082,-161.9948 -289.21622,-166.7678 -12.61695,-5.9183 -21.60654,-7.9401 -37.78378,-8.4978 -11.44821,-0.3947 -15.75319,-0.1202 -23.61862,1.5062 -24.69321,5.1057 -48.49506,20.4899 -61.63249,39.8356 C 403.69894,2714.7513 246.72074,2987.37 243.4754,2995 c -10.87982,25.5792 -10.36308,56.3734 1.36599,81.4026 2.14827,4.5843 5.83483,11.2066 8.19236,14.7162 5.59737,8.3328 18.77497,21.3027 26.96625,26.5411 9.03093,5.7755 277.05553,160.3551 284.74271,164.2216 17.97868,9.0429 42.17612,11.844 64.25729,7.4384 z m 669.7496,-926.8319 c 27.2003,-5.1598 50.9783,-20.7634 65.5085,-42.988 10.0864,-15.4277 262.9774,-454.9369 265.7451,-461.849 5.3837,-13.4451 6.4238,-19.5694 6.3944,-37.651 -0.03,-18.2185 -1.2232,-24.5137 -7.5125,-39.6213 -6.3831,-15.3331 -20.5209,-32.8399 -34.0208,-42.128 -6.3686,-4.3818 -448.7974,-259.7599 -457.8643,-264.2879 -25.2506,-12.6099 -56.1305,-13.2924 -83.6213,-1.8479 -15.3079,6.3726 -32.8571,20.5351 -42.0844,33.9626 -4.319,6.285 -259.77647,448.8544 -264.31949,457.9225 -7.59796,15.1659 -10.57021,30.1442 -9.69739,48.8686 0.59905,12.8512 2.82046,22.7013 7.83747,34.7527 6.86662,16.4944 21.26378,33.7583 36.38511,43.6301 12.71445,8.3005 454.0037,262.5151 460.0649,265.0307 3.2643,1.3548 7.6722,3.0218 9.7953,3.7045 12.3686,3.9771 33.6802,5.102 47.3894,2.5014 z"
         id="path135" />
    </g>
  </g>
</svg>
