<svg xmlns="http://www.w3.org/2000/svg" width="1920" height="3560"><path d="M0 1780V0h1920v3560H0Z" style="fill:#e9e9e9"/><path d="M0 2348.5C0 1682.175.2 1137 .445 1137s60.014 34.385 132.821 76.412 135.234 77.615 138.726 79.085c20.877 8.787 47.135 9.844 69.484 2.798 21.22-6.69 40.783-21.44 52.781-39.795 2.517-3.85 44.268-75.8 92.78-159.887 60.576-105.001 89.12-155.4 91.13-160.907 16.059-44.003.735-92.808-37.184-118.43-7.535-5.09-307.964-178.328-315.492-181.922-3.854-1.84-11.504-4.531-17-5.98-13.548-3.57-34.537-3.846-47.491-.626-23.653 5.88-45.422 20.3-58.506 38.752-2.34 3.3-26.187 44.025-52.995 90.5S.588 841.688.38 841.917 0 652.808 0 421.167V0h488.5C757.175 0 977 .186 977 .413s-21.524 37.69-47.83 83.25l-117.424 203.37c-38.277 66.293-70.926 123.893-72.553 128-5.088 12.84-6.682 21.862-6.62 37.467.061 15.75 2.016 25.846 7.597 39.253 7.755 18.628 23.9 36.62 42.957 47.87 42.066 24.833 750.66 433.302 755.373 435.435 19.594 8.867 45.958 10.779 67.426 4.889 9.347-2.564 21.79-8.332 30.193-13.995 8.081-5.446 20.34-17.665 25.536-25.452 2.202-3.3 61.118-104.963 130.924-225.917L1919.5 494.665l.25 1516.334c.138 833.984.096 1516.488-.092 1516.676s-136.426-78.23-302.75-174.261c-166.324-96.032-305.333-176.083-308.908-177.89-8.53-4.314-20.697-8.097-30.364-9.442-34.712-4.828-70.616 9.207-91.847 35.905-4.358 5.48-37.302 61.657-107.289 182.954l-101 175.046-488.75.01L0 3560Zm629 940.82c21.586-4.307 43.626-17.865 57.148-35.155 8.823-11.282 168.82-288.834 172.73-299.641 4.456-12.314 6.124-21.935 6.109-35.232-.025-22.582-6.574-42.906-19.427-60.292-4.37-5.91-15.742-16.964-22.06-21.443-8.28-5.868-279.04-161.994-289.216-166.767-12.617-5.919-21.607-7.94-37.784-8.498-11.448-.395-15.753-.12-23.619 1.506-24.693 5.106-48.495 20.49-61.632 39.835-7.55 11.118-164.528 283.737-167.774 291.367-10.88 25.58-10.363 56.373 1.366 81.403 2.149 4.584 5.835 11.206 8.193 14.716 5.597 8.333 18.775 21.302 26.966 26.54 9.03 5.776 277.056 160.356 284.743 164.222 17.978 9.043 42.176 11.844 64.257 7.439m669.75-926.832c27.2-5.16 50.978-20.763 65.508-42.988 10.086-15.428 262.977-454.937 265.745-461.849 5.384-13.445 6.424-19.57 6.395-37.651-.03-18.218-1.224-24.514-7.513-39.621-6.383-15.333-20.52-32.84-34.02-42.128-6.37-4.382-448.798-259.76-457.865-264.288-25.25-12.61-56.13-13.293-83.621-1.848-15.308 6.373-32.857 20.535-42.085 33.963-4.319 6.285-259.776 448.854-264.32 457.922-7.597 15.166-10.57 30.144-9.697 48.869.6 12.85 2.82 22.7 7.838 34.752 6.867 16.495 21.264 33.759 36.385 43.63 12.714 8.3 454.004 262.515 460.065 265.031 3.264 1.355 7.672 3.022 9.795 3.705 12.369 3.977 33.68 5.102 47.39 2.501" style="fill:#e1e1e1"/></svg>