<svg xmlns="http://www.w3.org/2000/svg" width="1440.001" height="1080" viewBox="0 0 381 285.75"><path d="M0 142.875V0h381v285.75H0z" fill="#d6d6d6"/><path d="M0 142.875V0H244.782l-.517.86c-2.611 4.332-17.74 30.807-18.208 31.86-1.662 3.75-2.034 8.719-.942 12.6 1.145 4.074 3.567 7.887 6.487 10.21 1.665 1.325 90.734 52.921 93.719 54.29 6.882 3.156 14.692 1.992 20.943-3.122.613-.502 1.757-1.765 2.542-2.807.785-1.042 8.32-13.85 16.745-28.463l15.317-26.57.066 118.358c.037 65.096.026 118.397-.023 118.446-.049.05-16.337.06-36.196.023l-36.107-.067 18.88-32.676c10.384-17.972 19.288-33.472 19.786-34.444 2.553-4.982 2.837-10.443.821-15.827-1.415-3.78-4.154-7.261-7.37-9.365-1.654-1.081-67.495-39.084-69.3-39.999-1.685-.854-4.66-1.65-6.939-1.854-6.566-.591-14.102 3.108-17.755 8.714-1.022 1.57-39.21 67.745-40.048 69.398-2.11 4.165-2.365 9.948-.652 14.77 1.238 3.486 3.66 6.88 6.356 8.906.85.64 13.718 8.186 28.592 16.77l27.045 15.607-37.174.067c-20.446.037-53.902.037-74.346 0l-37.172-.067 14.977-25.93c16.847-29.165 17.297-29.974 18.088-32.543 2.284-7.422-.768-16.508-7.098-21.131-1.224-.894-70.135-40.756-72.67-42.037-5.85-2.956-12.995-2.616-18.818.897-1.869 1.127-4.298 3.315-5.472 4.928-.892 1.225-40.783 70.18-42.075 72.73-1.392 2.748-1.899 5.003-1.892 8.425.008 3.839.437 5.657 2.134 9.052 1.306 2.612 3.436 5.188 5.607 6.78.687.503 8.214 4.93 16.727 9.838 8.513 4.908 15.527 8.968 15.588 9.023.06.055-9.91.1-22.159.1H0zm111.522-19.982c3.92-1.064 8.09-3.824 10.362-6.857 1.58-2.11 18.952-32.14 19.8-34.227 3.503-8.621.267-18.754-7.6-23.801-3.4-2.182-31.335-18.164-32.757-18.742-7.037-2.859-15.533-1.117-20.992 4.303-.855.848-1.88 2.019-2.28 2.6-1.46 2.129-18.63 32.053-19.211 33.484-3.45 8.49-.179 18.724 7.578 23.706 3.44 2.21 31.332 18.172 32.785 18.762 3.606 1.465 8.608 1.779 12.315.772z" fill="#d4d4d4"/><path d="M0 142.875V0h122.238c67.23 0 122.237.075 122.237.167 0 .092-4.125 7.312-9.168 16.045-5.294 9.17-9.425 16.62-9.777 17.632-2.92 8.394.269 18.096 7.51 22.857.978.643 22.05 12.866 46.825 27.163 28.488 16.437 45.706 26.222 46.838 26.615 3.669 1.276 7.828 1.461 11.567.515 3.97-1.004 8.436-3.989 10.804-7.22.676-.922 18.91-32.324 31.606-54.43.23-.398.306 28.606.312 117.939L381 285.75h-36.115c-19.864 0-36.116-.053-36.116-.117 0-.065 8.651-15.097 19.225-33.404 10.574-18.308 19.554-34.06 19.957-35.006 3.61-8.494.562-18.754-7.098-23.894-2.87-1.926-68.844-39.9-70.465-40.559-3.641-1.48-8.424-1.784-12.287-.78-4.385 1.14-8.824 4.282-11.324 8.013-1.928 2.88-39.9 68.848-40.559 70.465-1.014 2.486-1.521 5.611-1.348 8.31.2 3.121.718 5.033 2.158 7.97 1.348 2.747 3.814 5.62 6.202 7.225.814.547 13.435 7.89 28.048 16.32l26.569 15.325-37.065.067c-20.385.037-53.778.037-74.207 0l-37.142-.067 15.96-27.65c8.777-15.206 16.206-28.303 16.508-29.103 1.474-3.91 1.676-9.065.502-12.833a20.258 20.258 0 00-7.808-10.626c-2.006-1.384-71.88-41.55-73.242-42.1-3.616-1.463-8.738-1.764-12.483-.733-3.698 1.019-7.375 3.352-9.801 6.22-1.469 1.737-42.366 72.302-43.452 74.973-1.63 4.008-1.818 9.275-.476 13.277 1.379 4.112 4.139 7.929 7.304 10.099.65.445 7.849 4.654 15.998 9.353 8.15 4.7 15.051 8.704 15.339 8.9.438.298-2.998.355-21.63.355H0zm110.541-19.726c1.238-.25 3.125-.937 4.802-1.75 2.401-1.162 3.06-1.637 5.028-3.623 2.237-2.259 2.37-2.472 11.545-18.425 5.104-8.877 9.53-16.735 9.834-17.462.984-2.353 1.476-5.513 1.315-8.456-.339-6.197-3.392-11.698-8.402-15.14-2.073-1.422-30.2-17.593-32.401-18.627-8.353-3.922-18.787-1.233-24.05 6.198-1.508 2.131-17.971 30.666-19.095 33.098-1.26 2.726-1.805 5.744-1.627 9.001.277 5.083 2.15 9.274 5.738 12.843 2.234 2.223 2.45 2.358 18.398 11.534 8.876 5.106 16.793 9.547 17.593 9.867 3.332 1.335 7.611 1.69 11.322.942z" fill="#d1d1d1"/><path d="M0 142.875V0h122.238c67.23 0 122.237.052 122.237.115s-4.109 7.233-9.131 15.934c-5.023 8.701-9.38 16.478-9.682 17.282-2.814 7.475-.918 15.872 4.818 21.328.93.886 2.168 1.91 2.75 2.275 1.789 1.125 90.077 52.058 91.381 52.718 3.58 1.811 8.426 2.44 12.477 1.62 6.182-1.253 10.427-4.51 14.162-10.865 1.025-1.745 8.109-13.997 15.741-27.227l13.877-24.055.066 118.224c.037 65.023.026 118.264-.023 118.313-.049.05-16.302.06-36.119.023l-36.029-.067 18.945-32.809c10.42-18.044 19.278-33.463 19.684-34.263 1.263-2.487 1.894-4.936 2.048-7.938.312-6.1-1.757-11.189-6.27-15.416-1.891-1.773-4.521-3.346-35.725-21.36-18.526-10.697-34.29-19.772-35.032-20.167-4.04-2.158-9.358-2.873-13.676-1.839-4.299 1.03-7.176 2.709-10.18 5.942-1.659 1.785-3.727 5.255-21.783 36.557-10.972 19.022-20.237 35.297-20.589 36.167-2.406 5.957-1.648 13.059 1.96 18.353 1.128 1.657 3.68 4.3 5 5.176.424.283 12.882 7.507 27.685 16.055l26.914 15.542-73.987.066c-40.694.037-74.039.016-74.101-.047-.063-.062 6.874-12.217 15.414-27.01 8.54-14.793 15.862-27.572 16.27-28.396 1.43-2.884 1.722-4.332 1.716-8.51-.004-2.983-.115-4.19-.497-5.424-1.15-3.713-3.592-7.46-6.305-9.676-1.692-1.383-71.462-41.833-74.524-43.207-3.295-1.48-8.205-1.914-12.014-1.064-4.022.897-8.323 3.495-10.784 6.515-1.358 1.666-40.872 69.759-42.878 73.89-1.27 2.615-1.81 5.078-1.816 8.282-.006 3.077.56 5.662 1.837 8.387 1.304 2.784 3.031 5.069 5.14 6.797.98.805 7.786 4.908 15.933 9.607 7.82 4.511 14.884 8.585 15.695 9.054l1.475.852-22.159.008L0 285.75zm112.58-20.194c1.165-.382 2.886-1.144 3.826-1.693 2.222-1.3 5.243-4.164 6.576-6.236 1.67-2.595 17.794-30.597 18.486-32.103 1.95-4.25 2.228-10.055.69-14.456-.445-1.275-1.21-2.991-1.7-3.815-1.071-1.802-3.53-4.506-5.234-5.757-.682-.5-8.378-5.03-17.102-10.064-11.535-6.657-16.437-9.347-17.977-9.863-1.921-.645-2.483-.711-6.085-.713-3.771-.002-4.085.04-6.287.822-1.275.453-2.984 1.224-3.798 1.714-1.84 1.107-4.538 3.548-5.745 5.198-.502.687-5.037 8.392-10.078 17.124-6.662 11.537-9.361 16.453-9.878 17.991-.646 1.922-.712 2.481-.714 6.086-.002 3.77.04 4.084.822 6.286.453 1.275 1.225 2.995 1.714 3.82 1.221 2.061 4.147 5.107 6.127 6.38 2.581 1.658 30.592 17.786 32.1 18.481 2.792 1.289 4.971 1.686 8.701 1.585 2.83-.077 3.815-.216 5.556-.787z" fill="#cecece"/><path d="M0 142.875V0h244.494l-.311.595c-.172.328-4.09 7.144-8.706 15.148-4.617 8.003-8.77 15.296-9.228 16.206-2.358 4.687-2.5 11.043-.358 16.14 1.367 3.253 4.095 6.67 6.81 8.527 1.454.995 90.298 52.26 92.229 53.218 2.717 1.347 4.475 1.69 8.577 1.67 3.233-.016 3.963-.104 5.733-.693a20.63 20.63 0 009.206-6.156c1.281-1.48.932-.889 18.409-31.176l14.013-24.285.066 118.19c.037 65.004.026 118.23-.023 118.278-.049.05-16.294.06-36.1.023l-36.01-.067 19.323-33.47c10.627-18.409 19.62-34.177 19.984-35.04.95-2.256 1.397-4.675 1.402-7.582.012-6.522-3.141-12.5-8.594-16.295-1.22-.849-67.235-38.932-69.189-39.914-2.676-1.345-4.33-1.748-7.813-1.902-3.513-.155-6.176.325-9.018 1.626-3.03 1.387-6.25 4.03-7.977 6.547-1.733 2.526-40.245 69.548-40.878 71.14-3.112 7.823-.364 17.696 6.313 22.681.922.689 13.748 8.218 28.502 16.73l26.825 15.479-73.956.066c-40.676.037-74.002.02-74.058-.035-.056-.057 7.071-12.526 15.839-27.71 11.702-20.267 16.135-28.173 16.673-29.734 2.838-8.232-.084-17.57-7.03-22.47-.887-.626-17.567-10.345-37.067-21.598-26.068-15.044-36.015-20.655-37.574-21.196-8.34-2.89-17.875.208-22.7 7.376-.664.987-10.345 17.63-21.513 36.984-14.867 25.765-20.503 35.757-21.043 37.31-2.792 8.034.01 17.344 6.7 22.255.733.538 8.31 5.007 16.838 9.931l15.504 8.953H0zm112.074-19.971c.746-.217 2.356-.893 3.577-1.503 1.807-.9 2.69-1.58 4.735-3.641l2.513-2.534 8.942-15.535c4.918-8.544 9.296-16.316 9.729-17.27 1.309-2.887 1.641-4.83 1.493-8.735-.106-2.794-.26-3.805-.816-5.39-1.159-3.299-2.417-5.253-5.046-7.839-2.413-2.374-2.466-2.407-18.014-11.355-8.576-4.936-16.31-9.296-17.185-9.69-2.494-1.121-4.76-1.577-7.85-1.577-3.453 0-6.12.628-9.22 2.17-1.841.916-2.706 1.578-4.763 3.65l-2.514 2.532-9.048 15.734c-4.977 8.654-9.336 16.39-9.688 17.19-1.057 2.407-1.504 4.7-1.504 7.713 0 3.453.627 6.12 2.17 9.22.912 1.835 1.582 2.711 3.643 4.762l2.525 2.514 15.74 9.05c15.632 8.987 17.633 10.062 19.87 10.673 2.797.764 7.827.7 10.71-.14z" fill="#ccc"/><path d="M0 142.875V0h244.525l-.65 1.124c-20.52 35.521-19.256 33.023-19.453 38.452-.096 2.638-.019 3.583.44 5.424 1.111 4.443 3.736 8.538 7.07 11.03.92.689 22.188 13.093 47.26 27.565 34.96 20.18 46.108 26.496 47.833 27.1 2.935 1.025 7.304 1.264 10.494.574 4.326-.937 8.879-3.803 11.41-7.182.69-.923 8.16-13.638 16.597-28.256l15.342-26.578.066 118.16c.037 64.988.026 118.2-.023 118.25-.049.049-16.287.059-36.083.022l-35.994-.067 19.553-33.867c15.27-26.447 19.706-34.33 20.246-35.983.904-2.766 1.137-7.487.514-10.429-.861-4.065-3.895-8.906-7.092-11.317-.809-.61-16.993-10.069-35.965-21.021-26.214-15.133-35.035-20.102-36.744-20.7-2.945-1.029-7.313-1.266-10.494-.568-4.245.93-8.465 3.497-11.054 6.722-2.161 2.693-41.05 70.226-42.068 73.055-.768 2.131-.81 2.457-.81 6.218 0 3.454.08 4.209.618 5.82 1.322 3.963 3.828 7.652 6.677 9.83.79.604 13.58 8.105 28.421 16.669l26.986 15.57-73.927.067c-40.66.037-73.967.026-74.017-.024-.05-.05 6.952-12.284 15.56-27.187 8.609-14.902 15.994-27.841 16.412-28.754 1.15-2.508 1.625-4.855 1.623-7.998-.005-5.952-2.4-11.15-6.958-15.107-.937-.812-14.142-8.588-37.042-21.81-19.572-11.301-36.004-20.762-36.514-21.024-1.557-.8-4.139-1.552-6.384-1.86-3.95-.54-8.918.516-12.565 2.671-1.7 1.005-5.158 4.295-6.234 5.933-.72 1.096-40.83 70.56-41.555 71.967-.734 1.425-1.494 4.076-1.792 6.253-.54 3.947.511 8.9 2.67 12.573.499.847 1.918 2.553 3.155 3.792 2.229 2.232 2.39 2.334 17.86 11.223 8.585 4.935 15.723 9.072 15.861 9.195.139.123-9.654.223-21.762.223H0zm111.538-19.848c4.333-1.108 8.722-4.14 11.163-7.713 1.067-1.562 17.38-29.806 18.503-32.037 2.773-5.507 2.708-12.346-.17-17.868-1.263-2.427-2.809-4.37-4.847-6.092-1.302-1.101-29.863-17.816-33.752-19.753-3.678-1.832-9.162-2.338-13.346-1.232-3.895 1.03-7.558 3.364-10.243 6.526-1.042 1.227-17.827 29.923-19.702 33.682-1.832 3.674-2.339 9.161-1.232 13.346 1.032 3.903 3.549 7.846 6.6 10.342 1.29 1.054 29.973 17.81 33.376 19.497 4.111 2.038 8.964 2.5 13.65 1.302z" fill="#cacaca"/><path d="M0 142.875V0h244.518l-.517.86c-3.394 5.638-17.768 30.856-18.22 31.965-1.58 3.868-1.925 8.568-.917 12.455 1.018 3.925 3.506 7.89 6.482 10.333 1.09.893 18.058 10.84 46.63 27.334 24.704 14.26 45.783 26.357 46.84 26.88 5.201 2.568 11.968 2.525 17.194-.11 2.617-1.32 4.886-3.08 6.497-5.04.87-1.06 7.295-11.918 16.883-28.535l15.478-26.826.066 118.129c.037 64.97.026 118.168-.023 118.217-.049.05-16.278.06-36.064.023l-35.974-.067 18.89-32.676c10.389-17.972 19.352-33.642 19.919-34.822 1.403-2.924 1.904-5.197 1.89-8.57-.027-6.055-2.679-11.666-7.25-15.342-1.525-1.226-69.016-40.317-71.477-41.4-3.71-1.632-8.715-2.015-12.677-.97-4.023 1.06-7.817 3.454-10.338 6.523-1.338 1.628-40.587 69.288-41.666 71.826-1.557 3.662-1.9 8.632-.867 12.553 1.09 4.136 3.618 8.07 6.78 10.553.8.628 13.61 8.158 28.467 16.733l27.011 15.592-37.093.067c-20.402.037-53.693.037-73.98 0l-36.886-.067 14.978-25.93c17.34-30.014 17.341-30.018 18.132-32.808.833-2.942.83-7.326-.006-10.304-1.182-4.205-4.017-8.355-7.39-10.818-1.244-.909-70.136-40.76-72.732-42.073-2.54-1.285-5.19-1.86-8.549-1.854-3.67.006-5.524.444-8.918 2.111-2.62 1.287-5.384 3.59-7.043 5.867-.896 1.23-40.789 70.197-42.093 72.772-1.262 2.489-1.84 5.165-1.84 8.509 0 3.633.608 6.141 2.263 9.322 1.16 2.23 3.998 5.505 5.908 6.82.612.42 7.947 4.71 16.298 9.532 8.352 4.821 15.234 8.816 15.295 8.876.06.06-9.792.11-21.894.11H0zm109.188-19.336c5.009-.693 9.93-3.498 12.88-7.342 1.243-1.621 18.657-31.6 19.621-33.78 2.03-4.587 2.14-10.061.302-14.944a19.774 19.774 0 00-7.852-9.699c-5.02-3.206-31.52-18.234-33.299-18.883-5.98-2.18-12.136-1.466-17.596 2.042a19.37 19.37 0 00-5.798 5.798c-3.187 4.963-18.333 31.642-18.998 33.464-.407 1.115-.882 3.044-1.056 4.287-.9 6.43 2.04 13.79 7.103 17.783 1.567 1.236 32.138 19.034 34.246 19.938 1.086.465 3.896 1.205 5.505 1.45 1.333.202 2.92.165 4.942-.114z" fill="#c8c8c8"/><path d="M0 142.875V0h244.487l-.373.595c-.962 1.532-17.377 30.122-17.964 31.287-4.145 8.234-1.354 19.194 6.262 24.59 1.61 1.142 89.324 51.862 92.179 53.303 8.788 4.435 19.784 1.413 25.292-6.952.778-1.182 7.998-13.579 16.043-27.549 8.046-13.97 14.729-25.513 14.851-25.651.123-.139.223 52.933.223 117.938V285.75H344.99c-29.178 0-35.987-.064-35.882-.34.072-.186 8.58-14.98 18.91-32.874 10.328-17.894 19.151-33.273 19.606-34.176 1.393-2.76 1.988-5.364 1.985-8.678-.004-4.49-1.143-8.121-3.65-11.635-2.616-3.665-2.034-3.297-38.812-24.516-18.826-10.86-34.846-20.056-35.601-20.435-4.458-2.236-10.134-2.507-15.168-.726-3.026 1.071-4.872 2.267-7.4 4.795l-2.253 2.251-19.447 33.732c-10.696 18.552-19.886 34.567-20.423 35.59-2.541 4.836-2.911 10.447-1.038 15.742 1.074 3.034 2.271 4.882 4.794 7.403l2.251 2.25 27.305 15.742 27.305 15.743-37.051.067c-20.379.037-53.64.037-73.913 0l-36.861-.067 13.747-23.813c7.561-13.097 14.75-25.557 15.977-27.689 2.72-4.73 3.772-7.66 3.995-11.131.416-6.448-2.437-12.818-7.58-16.927-2.039-1.629-72.686-42.278-74.877-43.083-5.372-1.973-10.482-1.674-15.742.922-2.674 1.32-4.83 3.016-6.57 5.172-1.75 2.164-42.559 73.011-43.393 75.331-1.856 5.159-1.509 10.592 1.004 15.725 1.08 2.204 3.154 4.811 4.992 6.274.91.723 8.456 5.244 16.771 10.045 8.315 4.8 15.336 8.855 15.6 9.01.344.199-5.894.282-21.543.288L0 285.75zm111.512-19.729c4.742-1.279 8.97-4.317 11.595-8.334 1.159-1.771 17.31-29.75 18.273-31.651 1.316-2.601 1.872-5.186 1.866-8.68-.005-3.48-.396-5.382-1.69-8.237-1.34-2.956-3.636-5.838-6.079-7.631-1.593-1.17-31.151-18.255-33.23-19.208-5.874-2.693-12.72-2.3-18.365 1.052-2.123 1.262-4.382 3.258-5.66 5.003-1.167 1.592-18.571 31.728-19.378 33.552-1.16 2.62-1.53 4.54-1.53 7.904 0 2.218.14 3.688.467 4.88 1.35 4.914 4.33 9.085 8.382 11.73 1.725 1.127 29.801 17.336 31.65 18.273 1.396.707 3.614 1.41 5.594 1.773 1.731.318 6.224.082 8.105-.426z" fill="#c7c7c7"/></svg>